# Blender 3.3.0
# www.blender.org
mtllib 3.mtl
o Sphere
v 0.415627 0.809017 -0.415627
v 0.672499 0.309017 -0.672499
v 0.672499 -0.309017 -0.672499
v 0.415627 -0.809017 -0.415627
v 0.587785 0.809017 0.000000
v 0.951057 0.309017 0.000000
v 0.951057 -0.309017 0.000000
v 0.587785 -0.809017 0.000000
v 0.415627 0.809017 0.415627
v 0.672499 0.309017 0.672499
v 0.672499 -0.309017 0.672499
v 0.415627 -0.809017 0.415627
v 0.000000 0.809017 0.587785
v 0.000000 0.309017 0.951057
v 0.000000 -0.309017 0.951057
v 0.000000 -0.809017 0.587785
v -0.415627 0.809017 0.415627
v -0.672499 0.309017 0.672499
v -0.672499 -0.309017 0.672499
v -0.415627 -0.809017 0.415627
v 0.000000 -1.000000 0.000000
v 0.000000 1.000000 0.000000
v -0.587785 0.809017 0.000000
v -0.951057 0.309017 0.000000
v -0.951057 -0.309017 0.000000
v -0.587785 -0.809017 0.000000
v -0.415627 0.809017 -0.415627
v -0.672499 0.309017 -0.672499
v -0.672499 -0.309017 -0.672499
v -0.415627 -0.809017 -0.415627
v 0.000000 0.809017 -0.587785
v 0.000000 0.309017 -0.951057
v 0.000000 -0.309017 -0.951057
v 0.000000 -0.809017 -0.587785
vn 0.1270 -0.9434 -0.3065
vn 0.3827 -0.0000 -0.9239
vn 0.1270 0.9434 -0.3065
vn 0.3177 -0.5573 -0.7671
vn 0.3177 0.5573 -0.7671
vn 0.7671 -0.5573 -0.3177
vn 0.7671 0.5573 -0.3177
vn 0.3065 -0.9434 -0.1270
vn 0.9239 -0.0000 -0.3827
vn 0.3065 0.9434 -0.1270
vn 0.7671 -0.5573 0.3177
vn 0.7671 0.5573 0.3177
vn 0.3065 -0.9434 0.1270
vn 0.9239 -0.0000 0.3827
vn 0.3065 0.9434 0.1270
vn 0.3177 -0.5573 0.7671
vn 0.3177 0.5573 0.7671
vn 0.1270 -0.9434 0.3065
vn 0.3827 -0.0000 0.9239
vn 0.1270 0.9434 0.3065
vn -0.3177 -0.5573 0.7671
vn -0.3177 0.5573 0.7671
vn -0.1270 -0.9434 0.3065
vn -0.3827 -0.0000 0.9239
vn -0.1270 0.9434 0.3065
vn -0.7671 -0.5573 0.3177
vn -0.7671 0.5573 0.3177
vn -0.3065 -0.9434 0.1270
vn -0.9239 -0.0000 0.3827
vn -0.3065 0.9434 0.1270
vn -0.7671 -0.5573 -0.3177
vn -0.7671 0.5573 -0.3177
vn -0.3065 -0.9434 -0.1270
vn -0.9239 -0.0000 -0.3827
vn -0.3065 0.9434 -0.1270
vn -0.3177 -0.5573 -0.7671
vn -0.3177 0.5573 -0.7671
vn -0.1270 -0.9434 -0.3065
vn -0.3827 -0.0000 -0.9239
vn -0.1270 0.9434 -0.3065
vt 0.625000 0.800000
vt 0.625000 0.600000
vt 0.625000 0.400000
vt 0.625000 0.200000
vt 0.500000 0.800000
vt 0.500000 0.600000
vt 0.500000 0.400000
vt 0.500000 0.200000
vt 0.375000 0.800000
vt 0.375000 0.600000
vt 0.375000 0.400000
vt 0.375000 0.200000
vt 0.250000 0.800000
vt 0.250000 0.600000
vt 0.250000 0.400000
vt 0.250000 0.200000
vt 0.125000 0.800000
vt 0.125000 0.600000
vt 0.125000 0.400000
vt 0.125000 0.200000
vt 0.687500 0.000000
vt 0.562500 0.000000
vt 0.437500 0.000000
vt 0.312500 0.000000
vt 0.187500 0.000000
vt 0.062500 0.000000
vt 0.937500 0.000000
vt 0.812500 0.000000
vt 0.687500 1.000000
vt 0.562500 1.000000
vt 0.437500 1.000000
vt 0.312500 1.000000
vt 0.187500 1.000000
vt 0.062500 1.000000
vt 0.937500 1.000000
vt 0.812500 1.000000
vt 0.000000 0.800000
vt 1.000000 0.800000
vt 0.000000 0.600000
vt 1.000000 0.600000
vt 0.000000 0.400000
vt 1.000000 0.400000
vt 0.000000 0.200000
vt 1.000000 0.200000
vt 0.875000 0.800000
vt 0.875000 0.600000
vt 0.875000 0.400000
vt 0.875000 0.200000
vt 0.750000 0.800000
vt 0.750000 0.600000
vt 0.750000 0.400000
vt 0.750000 0.200000
s 0
f 21/21/1 34/52/1 4/4/1
f 32/50/2 3/3/2 33/51/2
f 31/49/3 22/29/3 1/1/3
f 33/51/4 4/4/4 34/52/4
f 31/49/5 2/2/5 32/50/5
f 3/3/6 8/8/6 4/4/6
f 1/1/7 6/6/7 2/2/7
f 21/22/8 4/4/8 8/8/8
f 2/2/9 7/7/9 3/3/9
f 1/1/10 22/30/10 5/5/10
f 8/8/11 11/11/11 12/12/11
f 5/5/12 10/10/12 6/6/12
f 21/23/13 8/8/13 12/12/13
f 6/6/14 11/11/14 7/7/14
f 5/5/15 22/31/15 9/9/15
f 11/11/16 16/16/16 12/12/16
f 10/10/17 13/13/17 14/14/17
f 21/24/18 12/12/18 16/16/18
f 10/10/19 15/15/19 11/11/19
f 9/9/20 22/32/20 13/13/20
f 16/16/21 19/19/21 20/20/21
f 13/13/22 18/18/22 14/14/22
f 21/25/23 16/16/23 20/20/23
f 14/14/24 19/19/24 15/15/24
f 13/13/25 22/33/25 17/17/25
f 19/19/26 26/43/26 20/20/26
f 18/18/27 23/37/27 24/39/27
f 21/26/28 20/20/28 26/43/28
f 18/18/29 25/41/29 19/19/29
f 17/17/30 22/34/30 23/37/30
f 26/44/31 29/47/31 30/48/31
f 23/38/32 28/46/32 24/40/32
f 21/27/33 26/44/33 30/48/33
f 24/40/34 29/47/34 25/42/34
f 23/38/35 22/35/35 27/45/35
f 29/47/36 34/52/36 30/48/36
f 28/46/37 31/49/37 32/50/37
f 21/28/38 30/48/38 34/52/38
f 28/46/39 33/51/39 29/47/39
f 27/45/40 22/36/40 31/49/40
f 32/50/2 2/2/2 3/3/2
f 33/51/4 3/3/4 4/4/4
f 31/49/5 1/1/5 2/2/5
f 3/3/6 7/7/6 8/8/6
f 1/1/7 5/5/7 6/6/7
f 2/2/9 6/6/9 7/7/9
f 8/8/11 7/7/11 11/11/11
f 5/5/12 9/9/12 10/10/12
f 6/6/14 10/10/14 11/11/14
f 11/11/16 15/15/16 16/16/16
f 10/10/17 9/9/17 13/13/17
f 10/10/19 14/14/19 15/15/19
f 16/16/21 15/15/21 19/19/21
f 13/13/22 17/17/22 18/18/22
f 14/14/24 18/18/24 19/19/24
f 19/19/26 25/41/26 26/43/26
f 18/18/27 17/17/27 23/37/27
f 18/18/29 24/39/29 25/41/29
f 26/44/31 25/42/31 29/47/31
f 23/38/32 27/45/32 28/46/32
f 24/40/34 28/46/34 29/47/34
f 29/47/36 33/51/36 34/52/36
f 28/46/37 27/45/37 31/49/37
f 28/46/39 32/50/39 33/51/39
